<svg width="192" height="58" viewBox="0 0 192 58" fill="none" xmlns="http://www.w3.org/2000/svg">
<path d="M103.322 11.5H100.305V44.935H103.322V11.5Z" fill="white"/>
<path d="M141.859 11.5H151.485V14.2861H148.211V44.935H145.181V14.2861H141.859V11.5Z" fill="white"/>
<path d="M97.5423 11.5V44.935H94.381L89.862 24.6291V44.935H86.8984V11.5H89.6254L94.5768 33.6496V11.5H97.5423Z" fill="white"/>
<path d="M31.9276 11.5V44.935H28.9621V16.2758L25.304 44.935H22.8347L19.2346 16.2758V44.935H16.25V11.5H21.2983L24.1899 31.6561L26.9162 11.5H31.9276Z" fill="white"/>
<path d="M68.6787 44.943C70.7807 42.0603 72.0488 38.6466 72.342 35.0812C72.6351 31.5157 71.9419 27.9381 70.3394 24.7459C68.7369 21.5537 66.2877 18.8718 63.2641 16.9982C60.2405 15.1247 56.7608 14.1328 53.2116 14.1328C49.6624 14.1328 46.1827 15.1247 43.1591 16.9982C40.1355 18.8718 37.6863 21.5537 36.0838 24.7459C34.4813 27.9381 33.7881 31.5157 34.0812 35.0812C34.3744 38.6466 35.6425 42.0603 37.7445 44.943H41.7367C39.4919 42.6585 37.9679 39.7555 37.3567 36.5995C36.7456 33.4436 37.0746 30.1759 38.3023 27.2081C39.53 24.2403 41.6016 21.7051 44.256 19.9218C46.9104 18.1385 50.029 17.187 53.2189 17.187C56.4088 17.187 59.5274 18.1385 62.1819 19.9218C64.8363 21.7051 66.9078 24.2403 68.1356 27.2081C69.3633 30.1759 69.6923 33.4436 69.0811 36.5995C68.47 39.7555 66.946 42.6585 64.7011 44.943H68.6787Z" fill="white"/>
<path d="M162.414 44.935H159.464L158.684 37.4033H154.269L153.551 44.935H150.539L153.941 11.5H158.544L162.414 44.935ZM158.411 34.3851L156.404 15.9479L154.554 34.3851H158.411Z" fill="white"/>
<path d="M126.363 40.685C126.363 42.1925 125.484 42.962 124.478 42.962C123.471 42.962 122.593 42.1906 122.593 40.685V15.431C122.593 13.9248 123.473 13.1527 124.478 13.1527C125.483 13.1527 126.363 13.9242 126.363 15.431L126.355 16.6383V22.9422H129.39V18.0828L129.385 16.6775C129.363 12.5092 127.747 10.5234 124.375 10.5234C121.369 10.5234 119.414 12.6751 119.414 15.971V17.1989V38.1264V39.4816C119.414 43.7662 121.063 45.8542 124.446 45.8542C127.829 45.8542 129.39 43.8035 129.39 39.3922V27.2294H123.82V30.1569H126.356V39.5761L126.363 40.685Z" fill="white"/>
<path d="M138.802 39.8869V31.1942L131.891 25.9871V16.2716C131.891 12.453 133.596 10.5 136.932 10.5C140.323 10.5 141.865 12.4376 141.884 16.7312L141.893 18.0639V22.9926H138.802V16.3815L138.796 15.4346C138.796 13.9284 137.926 13.1563 136.931 13.1563C135.936 13.1563 135.063 13.9277 135.063 15.4346V24.5342L141.893 29.7349V39.7886C141.893 43.7184 140.157 45.8231 136.913 45.8231C133.628 45.8231 131.919 43.8399 131.897 40.0059L131.891 38.6835V32.1386H135.063V40.6886C135.063 42.1961 135.935 42.9656 136.931 42.9656C137.928 42.9656 138.796 42.1941 138.796 40.6886L138.802 39.8869Z" fill="white"/>
<path d="M85.0646 44.935H82.0405C81.6217 43.7843 81.4136 42.5664 81.4263 41.3408L81.4015 39.6308L81.3906 38.7629V32.2354C81.3906 30.8648 80.5616 30.2425 79.6049 30.2425H77.4494V44.935H74.4922V11.5H78.3556C82.6922 11.5 84.3657 13.0994 84.3657 17.3776V23.6571C84.3657 26.4702 83.8988 27.6505 81.7152 28.4624C81.7471 28.4714 81.779 28.4856 81.8071 28.4946C83.8701 29.1008 84.3331 29.8896 84.358 32.5279L84.3676 33.7429V39.8449C84.2967 41.5699 84.5328 43.2938 85.0646 44.935ZM77.4526 14.1325V27.3754H78.5176C80.4723 27.3754 81.3913 26.4715 81.3913 24.5526V17.7383C81.3913 14.9926 80.7599 14.1338 78.7453 14.1338H77.4526V14.1325Z" fill="white"/>
<path d="M173.769 44.935H170.743C170.324 43.7844 170.116 42.5664 170.13 41.3408L170.105 39.6308L170.093 38.7629V32.2354C170.093 30.8648 169.264 30.2425 168.312 30.2425H166.156V44.935H163.195V11.5H167.059C171.396 11.5 173.067 13.0994 173.067 17.3776V23.6571C173.067 26.4702 172.6 27.6505 170.42 28.4624C170.449 28.4714 170.478 28.4856 170.511 28.4946C172.572 29.1008 173.037 29.8896 173.062 32.5279L173.069 33.7429V39.8449C172.999 41.5701 173.236 43.2941 173.769 44.935ZM166.156 14.1325V27.3754H167.219C169.175 27.3754 170.094 26.4715 170.094 24.5526V17.7383C170.094 14.9926 169.463 14.1338 167.448 14.1338H166.156L166.156 14.1325Z" fill="white"/>
<path d="M116.674 11.5V44.935H113.515L108.996 24.6291V44.935H106.031V11.5H108.758L113.708 33.6496V11.5H116.674Z" fill="white"/>
</svg>
