<svg width="208" height="58" viewBox="0 0 208 58" fill="none" xmlns="http://www.w3.org/2000/svg">
<mask id="mask0_16149_73632" style="mask-type:luminance" maskUnits="userSpaceOnUse" x="14" y="7" width="27" height="37">
<path d="M40.4488 38.5717L32.9729 41.8268V41.5039C31.5314 41.8718 29.9342 42.0859 28.422 42.1534C21.391 42.0859 15.8103 38.399 15.7455 34.0175V32.3881C18.0547 35.7521 22.756 38.0048 28.422 37.9222C30.3387 38.0048 32.2999 37.7006 33.948 37.2726L34.5981 35.6432C32.6437 36.2289 30.5106 36.6344 28.422 36.6194C21.391 36.6344 15.8103 32.9475 15.7455 28.4834V27.1806C18.0547 30.2893 22.7459 32.542 28.422 32.3881C30.9757 32.542 33.4728 32.0051 35.5733 31.089L35.8984 29.4596C33.8469 30.5446 31.1877 31.1716 28.422 31.089C21.391 31.1716 15.8103 27.4885 15.7455 22.9494V21.6466C18.0547 24.8266 22.756 27.083 28.422 27.1806C31.6427 27.083 34.6959 26.227 37.1982 24.9017L37.5233 22.9494C35.2524 24.6351 31.9359 25.7202 28.422 25.8778C21.391 25.7202 15.8103 22.037 15.7455 17.4153C15.8103 13.0226 21.391 9.33568 28.422 9.27936C32.6133 9.33568 36.5058 10.8074 38.8235 13.184L39.0493 13.5594L40.6885 13.567L40.4488 13.184C38.1438 10.049 33.5335 7.97656 28.422 7.97656C20.6428 7.97656 14.4453 12.2717 14.4453 17.4153V34.3404C14.7183 39.3639 20.7742 43.4562 28.422 43.4562C33.4728 43.4562 38.0124 41.4664 40.4488 38.5717Z" fill="white"/>
</mask>
<g mask="url(#mask0_16149_73632)">
<mask id="mask1_16149_73632" style="mask-type:luminance" maskUnits="userSpaceOnUse" x="14" y="7" width="215" height="44">
<path d="M228.42 7.97656H14.4453V50.0265H228.42V7.97656Z" fill="white"/>
</mask>
<g mask="url(#mask1_16149_73632)">
<path d="M10.7031 47.2139H44.436V4.22656H10.7031" fill="white"/>
</g>
</g>
<mask id="mask2_16149_73632" style="mask-type:luminance" maskUnits="userSpaceOnUse" x="28" y="13" width="31" height="38">
<path d="M37.4117 50.0281L40.0361 38.8586L32.4913 42.1437L37.0836 22.7594H28.2266L30.5229 13.2344H58.734L56.438 22.7594H47.2529L45.2846 28.0157L55.4539 23.7469L37.4117 50.0281ZM42.0041 36.5571L40.6922 43.1274L51.5172 26.7016L42.6602 30.6438L46.5968 21.4454H55.4539L57.0938 14.5484H31.5071L29.8668 21.4454H38.7239L34.4596 39.8423L42.0041 36.5571Z" fill="white"/>
</mask>
<g mask="url(#mask2_16149_73632)">

<mask id="mask3_16149_73632" style="mask-type:luminance" maskUnits="userSpaceOnUse" x="14" y="7" width="215" height="44">
<path d="M228.42 7.97656H14.4453V50.0264H228.42V7.97656Z" fill="white"/>
</mask>
<g mask="url(#mask3_16149_73632)">
<path d="M24.4766 53.7827H62.4739V9.47656H24.4766" fill="white"/>
</g>
</g>
<mask id="mask4_16149_73632" style="mask-type:luminance" maskUnits="userSpaceOnUse" x="69" y="12" width="125" height="11">
<path d="M77.4642 19.6096L77.4777 19.6506C77.4957 20.6955 77.1773 21.519 76.5226 22.1132C75.8678 22.7032 74.9638 23.0023 73.8116 23.0023C72.6362 23.0023 71.6876 22.6212 70.9659 21.8632C70.2437 21.1093 69.8828 20.13 69.8828 18.9336V16.9832C69.8828 15.7908 70.2347 14.8074 70.9389 14.0494C71.6431 13.2873 72.5667 12.9062 73.7103 12.9062C74.9037 12.9062 75.8363 13.1971 76.5091 13.7831C77.1818 14.3649 77.5092 15.1885 77.4912 16.2457L77.4777 16.2866H75.567C75.567 15.6597 75.4158 15.1926 75.1134 14.8853C74.8105 14.578 74.343 14.4223 73.7103 14.4223C73.123 14.4223 72.6644 14.6599 72.335 15.1352C72.0048 15.6105 71.8401 16.2211 71.8401 16.9668V18.9336C71.8401 19.6875 72.0142 20.3021 72.362 20.7733C72.7094 21.2527 73.1925 21.4904 73.8116 21.4904C74.3989 21.4904 74.8375 21.3388 75.1268 21.0315C75.4158 20.7241 75.5605 20.2488 75.5605 19.6096H77.4642ZM88.2518 18.8393C88.2518 20.044 87.873 21.0396 87.1148 21.8222C86.3575 22.609 85.3705 23.0023 84.155 23.0023C82.9445 23.0023 81.9619 22.609 81.2083 21.8182C80.4551 21.0356 80.0782 20.0399 80.0782 18.8393V17.0692C80.0782 15.8728 80.4538 14.8771 81.205 14.0904C81.9562 13.2996 82.9351 12.9062 84.1419 12.9062C85.357 12.9062 86.3457 13.2996 87.1083 14.0904C87.8705 14.8771 88.2518 15.8728 88.2518 17.0692V18.8393ZM86.2946 17.0569C86.2946 16.2907 86.1037 15.6679 85.7228 15.1762C85.3415 14.6886 84.8143 14.4469 84.1419 14.4469C83.4778 14.4469 82.9612 14.6886 82.5909 15.1762C82.2211 15.6679 82.0359 16.2907 82.0359 17.0569V18.8393C82.0359 19.6137 82.2223 20.2447 82.5942 20.7364C82.9665 21.224 83.4868 21.4699 84.155 21.4699C84.8277 21.4699 85.3525 21.224 85.7293 20.7364C86.1062 20.2447 86.2946 19.6137 86.2946 18.8393V17.0569ZM93.3483 22.8589H91.3841V13.0497H93.3483V22.8589ZM104.654 22.8589H102.69L98.7407 16.2415L98.7003 16.2457V22.8589H96.736V13.0497H98.7003L102.649 19.6588L102.69 19.6506V13.0497H104.654V22.8589ZM114.533 14.5657H111.735V22.8589H109.77V14.5657H107.012V13.0497H114.533V14.5657ZM122.65 18.5443H119.018V21.351H123.336V22.8589H117.053V13.0497H123.323V14.5657H119.018V17.0323H122.65V18.5443ZM128.123 21.351H132.51V22.8589H126.159V13.0497H128.123V21.351ZM140.855 18.5443H137.223V21.351H141.541V22.8589H135.258V13.0497H141.528V14.5657H137.223V17.0323H140.855V18.5443ZM151.871 21.519C151.566 21.9165 151.111 22.2648 150.506 22.5598C149.901 22.8507 149.12 23.0023 148.165 23.0023C146.98 23.0023 146.012 22.6253 145.259 21.8837C144.505 21.1339 144.129 20.1669 144.129 18.9786V16.9299C144.129 15.7457 144.494 14.7788 145.225 14.0289C145.956 13.2832 146.895 12.9062 148.044 12.9062C149.241 12.9062 150.158 13.1931 150.795 13.7585C151.432 14.3281 151.739 15.0861 151.717 16.0326L151.703 16.0736H149.853C149.853 15.5532 149.703 15.1475 149.403 14.8566C149.102 14.5698 148.665 14.4223 148.09 14.4223C147.49 14.4223 147.005 14.6559 146.638 15.1189C146.27 15.586 146.086 16.1842 146.086 16.9135V18.9786C146.086 19.7202 146.274 20.3226 146.651 20.7897C147.028 21.2568 147.532 21.4904 148.165 21.4904C148.631 21.4904 149 21.4453 149.271 21.351C149.543 21.2568 149.753 21.1339 149.901 20.9946V19.0934H148.017V17.7289H151.871V21.519ZM156.948 18.9376V22.8589H154.983V13.0497H158.374C159.49 13.0497 160.364 13.3037 160.994 13.8158C161.624 14.3239 161.939 15.0328 161.939 15.9465C161.939 16.4505 161.806 16.8808 161.539 17.2495C161.272 17.6142 160.883 17.9092 160.372 18.1346C160.95 18.3067 161.366 18.5894 161.62 18.9909C161.873 19.3884 162 19.8841 162 20.4742V21.1953C162 21.4699 162.037 21.7567 162.111 22.0517C162.185 22.3508 162.312 22.5721 162.491 22.7155V22.8589H160.466C160.286 22.7155 160.171 22.4779 160.12 22.146C160.068 21.81 160.042 21.4903 160.042 21.1789V20.4865C160.042 19.9989 159.909 19.6137 159.642 19.3433C159.375 19.0729 158.997 18.9376 158.508 18.9376H156.948ZM156.948 17.4216H158.34C158.892 17.4216 159.302 17.3069 159.571 17.0692C159.84 16.8357 159.975 16.4915 159.975 16.0326C159.975 15.586 159.839 15.2254 159.568 14.9631C159.297 14.6968 158.899 14.5657 158.374 14.5657H156.948V17.4216ZM170.312 20.7405H167.136L166.477 22.8589H164.425L167.728 13.0497H169.74L173.03 22.8589H170.978L170.312 20.7405ZM167.621 19.1999H169.834L168.751 15.7458H168.711L167.621 19.1999ZM177.379 19.2982V22.8589H175.415V13.0497H179.162C180.288 13.0497 181.173 13.3365 181.819 13.9101C182.465 14.4879 182.788 15.2459 182.788 16.1842C182.788 17.1225 182.465 17.8764 181.819 18.4419C181.173 19.0155 180.288 19.2982 179.162 19.2982H177.379ZM177.379 17.7863H179.162C179.709 17.7863 180.124 17.6347 180.406 17.3356C180.689 17.0405 180.831 16.6554 180.831 16.1965C180.831 15.7253 180.69 15.336 180.41 15.0287C180.13 14.7173 179.714 14.5657 179.162 14.5657H177.379V17.7863ZM193.555 22.8589H191.591V18.7819H187.602V22.8589H185.637V13.0497H187.602V17.2659H191.591V13.0497H193.555V22.8589Z" fill="white"/>
</mask>
<g mask="url(#mask4_16149_73632)">
<path d="M66.1406 26.7588H197.303V9.15625H66.1406" fill="white"/>
</g>
<mask id="mask5_16149_73632" style="mask-type:luminance" maskUnits="userSpaceOnUse" x="69" y="30" width="102" height="12">
<path d="M76.026 32.0904H73.4122V39.1832H72.3394V32.0904H69.7578V31.2447H76.026V32.0904ZM78.0796 34.073C78.2829 33.7937 78.5324 33.5704 78.828 33.4148C79.1241 33.2552 79.4515 33.1754 79.8112 33.1754C80.4391 33.1754 80.9282 33.3629 81.2787 33.7459C81.6289 34.1209 81.8043 34.7033 81.8043 35.4892V39.1832H80.7316V35.4772C80.7316 34.9905 80.6273 34.6315 80.418 34.3961C80.2095 34.1648 79.8984 34.0491 79.4842 34.0491C79.1646 34.0491 78.8873 34.1129 78.651 34.2366C78.415 34.3642 78.2244 34.5358 78.0796 34.7632V39.1832H77.0064V30.6782H78.0796V34.073ZM85.7854 39.2988C84.9394 39.2988 84.2797 39.0316 83.8058 38.489C83.3315 37.9465 83.0951 37.2325 83.0951 36.3508V36.1075C83.0951 35.2658 83.3391 34.5637 83.8277 34.0052C84.3159 33.4547 84.912 33.1754 85.6167 33.1754C86.4045 33.1754 86.995 33.4228 87.3889 33.9134C87.7828 34.4001 87.9798 35.0543 87.9798 35.8681V36.4346H84.2113L84.1949 36.4665C84.1949 37.0569 84.3259 37.5396 84.5869 37.9066C84.8487 38.2776 85.2482 38.4611 85.7854 38.4611C86.1482 38.4611 86.467 38.4093 86.7411 38.3055C87.0153 38.2018 87.2504 38.0582 87.4462 37.8787L87.8656 38.5768C87.6547 38.7803 87.3774 38.9518 87.0324 39.0914C86.6874 39.231 86.272 39.2988 85.7854 39.2988ZM85.6167 34.0211C85.2422 34.0211 84.9331 34.1647 84.6879 34.452C84.4428 34.7432 84.2932 35.1142 84.2387 35.565L84.2495 35.5929H86.9075V35.5051C86.9075 35.0783 86.8016 34.7193 86.5911 34.444C86.3806 34.1608 86.0555 34.0211 85.6167 34.0211ZM92.4021 39.1832V34.081H91.4817V33.2871H92.4021V32.5372C92.4021 31.9069 92.5664 31.4242 92.8951 31.0771C93.2234 30.738 93.6818 30.5625 94.2703 30.5625C94.3932 30.5625 94.5178 30.5745 94.6431 30.5944C94.7684 30.6144 94.9073 30.6423 95.0597 30.6782L94.9288 31.496C94.8639 31.48 94.7847 31.4681 94.692 31.4561C94.5997 31.4481 94.5022 31.4441 94.4008 31.4441C94.0884 31.4441 93.856 31.5359 93.7037 31.7234C93.5513 31.9069 93.4749 32.1821 93.4749 32.5372V33.2871H94.5424V34.081H93.4749V39.1832H92.4021ZM99.3674 38.3135C99.1824 38.6287 98.9444 38.872 98.654 39.0435C98.3635 39.2151 98.0277 39.2988 97.6465 39.2988C97.0039 39.2988 96.5029 39.0954 96.1436 38.6845C95.7839 38.2736 95.604 37.6354 95.604 36.7617V33.2871H96.6772V36.7737C96.6772 37.404 96.7699 37.8348 96.9549 38.0742C97.1399 38.3095 97.4288 38.4292 97.8207 38.4292C98.2019 38.4292 98.5171 38.3494 98.7658 38.1978C99.0141 38.0423 99.2023 37.8228 99.3292 37.5396V33.2871H100.402V39.1832H99.4382L99.3674 38.3135ZM103.457 31.863V33.2871H104.574V34.081H103.457V37.6633C103.457 37.9425 103.514 38.138 103.629 38.2497C103.743 38.3614 103.895 38.4172 104.084 38.4172C104.145 38.4172 104.214 38.4093 104.29 38.3933C104.367 38.3774 104.43 38.3574 104.481 38.3414L104.628 39.0755C104.549 39.1433 104.43 39.1951 104.274 39.235C104.118 39.2789 103.964 39.2988 103.812 39.2988C103.375 39.2988 103.029 39.1712 102.771 38.9079C102.514 38.6406 102.384 38.2257 102.384 37.6633V34.081H101.448V33.2871H102.384V31.863H103.457ZM109.465 38.3135C109.279 38.6287 109.041 38.872 108.751 39.0435C108.46 39.2151 108.124 39.2988 107.743 39.2988C107.101 39.2988 106.6 39.0954 106.24 38.6845C105.881 38.2736 105.701 37.6354 105.701 36.7617V33.2871H106.774V36.7737C106.774 37.404 106.867 37.8348 107.052 38.0742C107.237 38.3095 107.526 38.4292 107.918 38.4292C108.299 38.4292 108.613 38.3494 108.863 38.1978C109.111 38.0423 109.299 37.8228 109.426 37.5396V33.2871H110.499V39.1832H109.535L109.465 38.3135ZM114.85 34.2366L114.3 34.2007C114.017 34.2007 113.778 34.2685 113.584 34.4001C113.39 34.5357 113.24 34.7272 113.135 34.9706V39.1832H112.062V33.2871H113.021L113.124 34.1448C113.291 33.8416 113.497 33.6063 113.742 33.4307C113.987 33.2592 114.269 33.1754 114.589 33.1754C114.669 33.1754 114.745 33.1794 114.817 33.1954C114.89 33.2073 114.95 33.2233 114.997 33.2353L114.85 34.2366ZM118.406 39.2988C117.56 39.2988 116.901 39.0316 116.427 38.489C115.953 37.9465 115.716 37.2325 115.716 36.3508V36.1075C115.716 35.2658 115.96 34.5637 116.449 34.0052C116.937 33.4547 117.533 33.1754 118.238 33.1754C119.025 33.1754 119.616 33.4228 120.011 33.9134C120.404 34.4001 120.601 35.0543 120.601 35.8681V36.4346H116.833L116.816 36.4665C116.816 37.0569 116.947 37.5396 117.208 37.9066C117.47 38.2776 117.869 38.4611 118.406 38.4611C118.77 38.4611 119.088 38.4093 119.362 38.3055C119.636 38.2018 119.871 38.0582 120.068 37.8787L120.487 38.5768C120.276 38.7803 119.998 38.9518 119.653 39.0914C119.309 39.231 118.893 39.2988 118.406 39.2988ZM118.238 34.0211C117.864 34.0211 117.554 34.1647 117.309 34.452C117.064 34.7432 116.914 35.1142 116.86 35.565L116.871 35.5929H119.528V35.5051C119.528 35.0783 119.423 34.7193 119.212 34.444C119.002 34.1608 118.677 34.0211 118.238 34.0211ZM124.326 36.1793C124.326 35.3097 124.562 34.5876 125.034 34.0251C125.506 33.4587 126.147 33.1754 126.956 33.1754C127.774 33.1754 128.419 33.4587 128.893 34.0211C129.366 34.5836 129.603 35.3057 129.603 36.1793V36.299C129.603 37.1806 129.367 37.8986 128.895 38.4611C128.424 39.0196 127.781 39.2988 126.967 39.2988C126.154 39.2988 125.51 39.0196 125.037 38.4611C124.563 37.8946 124.326 37.1766 124.326 36.299V36.1793ZM125.399 36.299C125.399 36.9293 125.531 37.4439 125.794 37.8508C126.057 38.2577 126.448 38.4611 126.967 38.4611C127.479 38.4611 127.868 38.2577 128.133 37.8508C128.398 37.4439 128.531 36.9293 128.531 36.299V36.1793C128.531 35.561 128.397 35.0464 128.13 34.6395C127.863 34.2286 127.472 34.0211 126.956 34.0211C126.444 34.0211 126.057 34.2286 125.794 34.6395C125.531 35.0464 125.399 35.561 125.399 36.1793V36.299ZM131.362 39.1832V34.081H130.442V33.2871H131.362V32.5372C131.362 31.9069 131.526 31.4242 131.855 31.0771C132.184 30.738 132.642 30.5625 133.23 30.5625C133.354 30.5625 133.478 30.5745 133.603 30.5944C133.729 30.6144 133.867 30.6423 134.02 30.6782L133.889 31.496C133.824 31.48 133.745 31.4681 133.652 31.4561C133.56 31.4481 133.463 31.4441 133.361 31.4441C133.049 31.4441 132.816 31.5359 132.664 31.7234C132.511 31.9069 132.435 32.1821 132.435 32.5372V33.2871H133.503V34.081H132.435V39.1832H131.362ZM138.317 33.2871L138.393 34.061C138.586 33.7778 138.83 33.5624 139.126 33.4068C139.421 33.2512 139.765 33.1754 140.158 33.1754C140.55 33.1754 140.886 33.2672 141.168 33.4467C141.449 33.6302 141.661 33.9015 141.802 34.2645C141.991 33.9294 142.237 33.6621 142.54 33.4667C142.844 33.2752 143.198 33.1754 143.605 33.1754C144.204 33.1754 144.678 33.3829 145.026 33.7978C145.375 34.2047 145.549 34.831 145.549 35.6607V39.1832H144.476V35.6487C144.476 35.0663 144.376 34.6514 144.177 34.4121C143.977 34.1687 143.68 34.0491 143.284 34.0491C142.917 34.0491 142.62 34.1767 142.393 34.432C142.166 34.6873 142.033 35.0065 141.993 35.3974V39.1832H140.915V35.6487C140.915 35.0902 140.812 34.6913 140.607 34.432C140.402 34.1767 140.107 34.0491 139.722 34.0491C139.395 34.0491 139.126 34.1169 138.916 34.2525C138.705 34.3841 138.544 34.5756 138.431 34.819V39.1832H137.358V33.2871H138.317ZM146.856 36.1793C146.856 35.3097 147.092 34.5876 147.564 34.0251C148.036 33.4587 148.677 33.1754 149.487 33.1754C150.303 33.1754 150.948 33.4587 151.422 34.0211C151.896 34.5836 152.133 35.3057 152.133 36.1793V36.299C152.133 37.1806 151.897 37.8986 151.425 38.4611C150.953 39.0196 150.311 39.2988 149.497 39.2988C148.684 39.2988 148.041 39.0196 147.567 38.4611C147.093 37.8946 146.856 37.1766 146.856 36.299V36.1793ZM147.929 36.299C147.929 36.9293 148.06 37.4439 148.324 37.8508C148.587 38.2577 148.978 38.4611 149.497 38.4611C150.009 38.4611 150.398 38.2577 150.663 37.8508C150.928 37.4439 151.06 36.9293 151.06 36.299V36.1793C151.06 35.561 150.927 35.0464 150.66 34.6395C150.393 34.2286 150.002 34.0211 149.487 34.0211C148.974 34.0211 148.587 34.2286 148.324 34.6395C148.06 35.0464 147.929 35.561 147.929 36.1793V36.299ZM154.404 33.2871L154.48 34.1648C154.676 33.8496 154.922 33.6102 155.218 33.4347C155.514 33.2632 155.851 33.1754 156.229 33.1754C156.864 33.1754 157.356 33.3629 157.704 33.7379C158.053 34.1089 158.227 34.6834 158.227 35.4613V39.1832H157.154V35.4812C157.154 34.9626 157.051 34.5916 156.847 34.3762C156.642 34.1568 156.328 34.0491 155.907 34.0491C155.577 34.0491 155.296 34.1169 155.066 34.2485C154.835 34.3802 154.653 34.5677 154.518 34.807V39.1832H153.446V33.2871H154.404ZM162.225 39.2988C161.379 39.2988 160.719 39.0316 160.245 38.489C159.771 37.9465 159.534 37.2325 159.534 36.3508V36.1075C159.534 35.2658 159.778 34.5637 160.267 34.0052C160.755 33.4547 161.351 33.1754 162.056 33.1754C162.843 33.1754 163.434 33.4228 163.829 33.9134C164.222 34.4001 164.419 35.0543 164.419 35.8681V36.4346H160.651L160.634 36.4665C160.634 37.0569 160.765 37.5396 161.027 37.9066C161.288 38.2776 161.687 38.4611 162.225 38.4611C162.588 38.4611 162.906 38.4093 163.18 38.3055C163.454 38.2018 163.69 38.0582 163.885 37.8787L164.305 38.5768C164.094 38.7803 163.817 38.9518 163.472 39.0914C163.127 39.231 162.711 39.2988 162.225 39.2988ZM162.056 34.0211C161.682 34.0211 161.372 34.1647 161.127 34.452C160.882 34.7432 160.732 35.1142 160.678 35.565L160.689 35.5929H163.346V35.5051C163.346 35.0783 163.241 34.7193 163.03 34.444C162.82 34.1608 162.495 34.0211 162.056 34.0211ZM167.425 37.0011L167.616 37.743H167.648L169.097 33.2871H170.29L167.812 40.0927C167.663 40.4876 167.45 40.8307 167.172 41.1299C166.894 41.4211 166.52 41.5687 166.048 41.5687C165.961 41.5687 165.85 41.5607 165.715 41.5368C165.581 41.5208 165.477 41.5009 165.405 41.4809L165.514 40.6352C165.492 40.6352 165.556 40.6352 165.707 40.6472C165.858 40.6592 165.953 40.6631 165.993 40.6631C166.222 40.6631 166.409 40.5634 166.554 40.36C166.699 40.1565 166.821 39.9331 166.919 39.6818L167.175 39.0675L164.986 33.2871H166.184L167.425 37.0011Z" fill="white"/>
</mask>
<g mask="url(#mask5_16149_73632)">
<path d="M66.0156 45.3225H174.038V26.8047H66.0156" fill="white"/>
</g>
</svg>
