<svg width="215" height="58" viewBox="0 0 215 58" fill="none" xmlns="http://www.w3.org/2000/svg">
<g clip-path="url(#clip0_16149_73596)">
<path d="M16 12H29.4162C31.9717 12 33.8883 12.6429 35.308 13.7143C36.8697 15 37.7215 16.8571 37.7215 19.1429C37.7215 21.7857 36.6567 23.4286 34.5272 24.4286V24.5714C37.3666 25.5 38.9992 28.0714 38.9992 31.1429C38.9992 34.0714 37.8635 36.3571 36.0178 37.7857C34.4562 38.9286 32.4686 39.4286 29.7711 39.4286H16V12ZM28.0675 22.7143C29.4872 22.7143 30.552 21.9286 30.552 20.2857C30.552 18.7143 29.4872 17.9286 27.9965 17.9286H23.3825V22.6429H28.0675V22.7143ZM28.7064 33.3571C30.339 33.3571 31.5458 32.3571 31.5458 30.5714C31.5458 28.6429 30.268 27.7857 28.7064 27.7857H23.4535V33.4286H28.7064V33.3571Z" fill="white"/>
<path d="M40.2031 12H47.2307V39.5H40.2031V12Z" fill="white"/>
<path d="M48.6562 29.7165C48.6562 23.5022 52.6314 19.3594 58.8071 19.3594C64.9829 19.3594 68.887 23.5737 68.887 29.7165C68.887 35.9308 64.9829 40.0737 58.8071 40.0737C52.6314 40.0737 48.6562 35.9308 48.6562 29.7165ZM61.8595 29.7165C61.8595 26.2879 60.7947 24.1451 58.6652 24.1451C56.5356 24.1451 55.5418 26.2879 55.5418 29.7165C55.5418 33.1451 56.5356 35.3594 58.6652 35.3594C60.7947 35.2879 61.8595 33.1451 61.8595 29.7165Z" fill="white"/>
<path d="M69.6641 29.7165C69.6641 23.5022 73.6392 19.3594 79.8149 19.3594C85.9907 19.3594 89.8239 23.5022 89.8239 29.7165C89.8239 35.9308 85.9197 40.0737 79.744 40.0737C73.6392 40.0737 69.6641 35.9308 69.6641 29.7165ZM82.8673 29.7165C82.8673 26.2879 81.8025 24.1451 79.673 24.1451C77.5434 24.1451 76.5496 26.2879 76.5496 29.7165C76.5496 33.1451 77.5434 35.3594 79.673 35.3594C81.8025 35.2879 82.8673 33.1451 82.8673 29.7165Z" fill="white"/>
<path d="M91.2422 19.8605H97.7728V22.7891H97.9148C99.1925 20.5033 100.967 19.2891 103.807 19.2891C106.291 19.2891 108.137 20.5033 109.059 22.6462H109.201C110.763 20.0748 112.822 19.2891 115.235 19.2891C119.778 19.2891 121.695 22.6462 121.695 27.1462V39.4319H114.88V28.3605C114.88 26.3605 114.241 25.0748 112.538 25.0748C110.834 25.0748 109.982 26.6462 109.982 28.7891V39.4319H103.168V28.3605C103.168 26.3605 102.529 25.0748 100.825 25.0748C99.1216 25.0748 98.2697 26.6462 98.2697 28.7891V39.4319H91.2422V19.8605Z" fill="white"/>
<path d="M130.289 36.8571H130.218V39.4286H123.688V12H130.502V21.8571H130.644C131.922 20.1429 133.696 19.2143 136.181 19.2143C141.079 19.2143 143.918 23.6429 143.918 29.5714C143.918 36.2143 140.866 40.0714 135.755 40.0714C133.625 40.0714 131.425 39.0714 130.289 36.8571ZM136.891 29.5C136.891 26.3571 135.755 24.2857 133.696 24.2857C131.567 24.2857 130.289 26.3571 130.289 29.5C130.289 32.6429 131.638 34.7143 133.696 34.7143C135.755 34.7143 136.891 32.7143 136.891 29.5Z" fill="white"/>
<path d="M144.695 29.6462C144.695 23.5033 148.741 19.2891 154.562 19.2891C157.473 19.2891 159.673 20.2176 161.377 21.8605C163.648 24.0748 164.642 27.5033 164.571 31.5033H151.51C151.794 33.9319 152.93 35.2176 154.988 35.2176C156.195 35.2176 157.26 34.6462 157.686 33.3605H164.287C163.151 37.8605 159.673 40.0748 154.775 40.0748C148.741 40.0033 144.695 35.8605 144.695 29.6462ZM151.51 27.5748H157.757C157.615 25.2176 156.337 24.0033 154.704 24.0033C152.788 23.9319 151.723 25.2891 151.51 27.5748Z" fill="white"/>
<path d="M172.312 23.2154H172.454C173.874 20.5011 175.719 19.4297 178.062 19.4297C178.63 19.4297 178.985 19.5011 179.197 19.644V25.644H179.056C175.009 24.9297 172.667 26.8583 172.667 31.2868V39.5011H165.781V19.8583H172.312V23.2154Z" fill="white"/>
<path d="M179.902 39.4967H186.503C186.787 40.3538 187.639 41.1395 189.272 41.1395C191.472 41.1395 192.253 39.7824 192.253 37.7109V36.2824H192.111C191.046 37.5681 189.556 38.4967 187.426 38.4967C183.238 38.4967 179.547 35.3538 179.547 29.2109C179.547 23.5681 182.528 19.2109 187.071 19.2109C189.698 19.2109 191.259 20.2824 192.324 21.9252H192.466V19.7824H198.997V36.7824C198.997 39.9252 197.932 42.3538 196.299 43.7824C194.596 45.2824 192.182 45.9252 189.414 45.9252C184.161 45.9967 180.541 43.8538 179.902 39.4967ZM192.537 28.9252C192.537 26.4967 191.401 24.4967 189.414 24.4967C187.497 24.4967 186.29 26.2109 186.29 28.9252C186.29 31.5681 187.497 33.4252 189.414 33.4252C191.33 33.4252 192.537 31.4967 192.537 28.9252Z" fill="white"/>
</g>
<defs>
<clipPath id="clip0_16149_73596">
<rect width="183" height="34" fill="white" transform="translate(16 12)"/>
</clipPath>
</defs>
</svg>
