<svg width="148" height="58" viewBox="0 0 148 58" fill="none" xmlns="http://www.w3.org/2000/svg">
<g clip-path="url(#clip0_16149_73629)">
<path fill-rule="evenodd" clip-rule="evenodd" d="M57.5838 20.6457V33.2914H63.8769V28.4703C63.8769 25.2821 63.8966 23.5325 63.9261 23.2992C63.9949 22.8035 64.1719 22.3272 64.4079 21.9676C64.8406 21.3261 65.46 21.0345 66.3155 21.0831C67.4168 21.1414 68.0658 21.7829 68.2526 23.0076C68.2821 23.1923 68.3018 25.1072 68.3018 28.2953V33.2914H74.5949V27.4691C74.5949 22.5605 74.5851 21.5496 74.5261 21.0636C74.3196 19.314 73.7198 17.963 72.707 16.9521C71.8318 16.087 70.7502 15.5719 69.4129 15.3969C68.8918 15.3289 67.584 15.3677 67.1218 15.4649C65.9812 15.7079 65.0864 16.1842 64.2801 16.9813L63.8376 17.4187V8H57.5936V20.6457H57.5838ZM124.478 8.1944C124.311 8.5832 117.909 23.8727 117.909 23.8922C117.909 23.9019 119.581 23.9116 121.636 23.9019H125.363L128.676 15.9801C130.505 11.6255 132 8.0486 132 8.02916C132 8.00972 130.328 8 128.283 8H124.566L124.478 8.1944ZM43.7881 15.3775C42.4016 15.5816 41.3495 15.9607 40.2974 16.6508C38.1833 18.031 36.7378 20.3735 36.3347 23.0757C36.1478 24.3198 36.2265 25.8945 36.5412 27.0997C37.318 30.1324 39.3731 32.4457 42.087 33.34C43.0703 33.6607 43.4341 33.719 44.6436 33.719C45.5187 33.719 45.7842 33.7093 46.0988 33.6413C47.3673 33.3691 48.3014 32.8928 49.0782 32.125L49.4814 31.7265V33.3011H55.5484V15.7565H49.4814V17.3701L49.1962 17.0785C48.4686 16.3203 47.4755 15.7954 46.2463 15.5038C45.8333 15.4066 45.6367 15.3872 44.8599 15.3775C44.3584 15.3775 43.8864 15.3775 43.8077 15.3775H43.7881ZM83.9658 15.4261C82.245 15.6496 80.5045 16.3883 79.2262 17.4187C76.7188 19.4307 75.4995 22.6674 75.9912 25.9917C76.532 29.6561 79.1574 32.5235 82.8251 33.4566C83.6511 33.6607 84.3886 33.7482 85.3719 33.7482C87.0927 33.7482 88.4004 33.4566 89.8361 32.7568C92.5401 31.4349 94.3396 28.9465 94.7821 25.9236C94.8902 25.1946 94.8902 23.9019 94.7821 23.1826C94.5559 21.6857 93.9954 20.286 93.1301 19.1002C92.786 18.6239 91.9207 17.7297 91.4487 17.3701C90.0819 16.3203 88.4791 15.6593 86.7387 15.4358C86.0405 15.3483 84.6639 15.3483 83.9756 15.4358L83.9658 15.4261ZM103.986 15.4261C102.285 15.6496 100.682 16.3203 99.3347 17.3603C98.8628 17.72 97.9975 18.6142 97.6533 19.0905C96.788 20.2763 96.2275 21.676 96.0014 23.1729C95.8932 23.8922 95.8932 25.1849 96.0014 25.9139C96.5717 29.8116 99.4232 32.7859 103.327 33.5538C104.074 33.6996 104.507 33.7385 105.402 33.7385C107.103 33.7385 108.568 33.408 109.954 32.6985C113.642 30.8225 115.54 26.7887 114.694 22.6091C113.917 18.7503 110.81 15.9509 106.729 15.4261C106.061 15.3386 104.674 15.3386 103.986 15.4261ZM16 15.776C16 15.776 17.7011 19.7612 19.766 24.592C21.8408 29.4325 23.5321 33.408 23.5321 33.4372C23.5321 33.4663 22.9224 34.9049 22.1751 36.635C21.4278 38.3652 20.828 39.794 20.828 39.8038C20.828 39.8135 22.3325 39.8135 24.1712 39.8038H27.5145L32.5391 27.8287C35.3022 21.2483 37.5638 15.8343 37.5638 15.8051C37.5638 15.7565 36.8951 15.7468 34.2599 15.7565H30.9462L28.9107 20.8692C27.7898 23.6783 26.8655 25.9625 26.8556 25.9431C26.8458 25.9333 25.9313 23.6394 24.8202 20.8401L22.8143 15.7663H19.4121C17.5339 15.7468 16.0098 15.7565 16.0098 15.7663L16 15.776ZM46.8658 21.0734C48.1244 21.3552 49.1274 22.337 49.4716 23.6103C49.6092 24.1157 49.6092 24.9516 49.4716 25.4571C49.1274 26.7304 48.1736 27.6732 46.8855 28.0134C46.3742 28.1495 45.5285 28.1495 45.0172 28.0134C43.9159 27.7315 42.9719 26.9248 42.5688 25.9236C42.1263 24.8253 42.264 23.445 42.9031 22.5216C43.7881 21.258 45.2729 20.7137 46.8658 21.0734ZM86.0405 21.0831C87.4073 21.3261 88.4693 22.3272 88.8036 23.7075C88.9118 24.1643 88.9019 24.9905 88.7839 25.4571C88.4594 26.6818 87.5351 27.6149 86.3158 27.9454C85.893 28.062 84.8606 28.062 84.4476 27.9454C83.4446 27.6732 82.6481 27.0123 82.2155 26.0889C81.9598 25.5446 81.8812 25.1946 81.8812 24.5337C81.8812 23.9408 81.9401 23.6394 82.1466 23.134C82.3925 22.5216 82.8645 21.9482 83.4249 21.5885C84.1526 21.1122 85.1457 20.9276 86.0503 21.0831H86.0405ZM106.061 21.0831C107.231 21.2872 108.204 22.0551 108.637 23.134C108.843 23.6394 108.902 23.9408 108.902 24.5337C108.902 25.1849 108.824 25.5446 108.568 26.0889C108.135 27.0025 107.339 27.6732 106.336 27.9454C105.923 28.062 104.881 28.0523 104.468 27.9454C103.258 27.6149 102.324 26.6818 101.999 25.4571C101.862 24.9516 101.862 24.1157 101.999 23.6103C102.422 22.0551 103.75 21.0345 105.382 21.015C105.569 21.015 105.874 21.0442 106.07 21.0734L106.061 21.0831ZM119.394 25.4182C117.575 25.6418 116.13 26.9345 115.736 28.6938C115.628 29.1798 115.638 30.0449 115.766 30.5406C116.149 32.0667 117.339 33.2039 118.883 33.5246C119.079 33.5635 119.453 33.5927 119.738 33.5927C120.928 33.5927 121.872 33.2136 122.708 32.3777C123.553 31.5418 123.937 30.6281 123.937 29.4228C123.937 27.9551 123.258 26.7304 122.019 25.9819C121.292 25.5348 120.24 25.3113 119.394 25.4182ZM67.5643 34.934C66.2958 35.352 65.7452 36.7614 66.404 37.8792C66.581 38.1708 66.994 38.5304 67.3381 38.6957C67.6331 38.8318 67.6725 38.8415 68.1936 38.8415C68.7148 38.8415 68.7541 38.8415 69.0491 38.6957C69.4424 38.511 69.8849 38.093 70.0619 37.714C70.5437 36.7031 70.1012 35.5367 69.0589 35.041C68.7443 34.8952 68.6656 34.8757 68.2723 34.866C67.9281 34.8563 67.7708 34.866 67.5741 34.934H67.5643ZM62.3135 35.0312C60.632 35.3617 59.5209 36.4212 59.0981 38.1028C59.0391 38.3555 58.9899 38.6957 58.9801 39.1234L58.9506 39.7649H57.5936V41.2423L57.6133 42.7197H58.2819L58.9506 42.7489V49.7376H62.5986V42.7489H63.8376L65.0765 42.7295V41.252L65.0962 39.7746H62.579L62.6085 39.4441C62.6773 38.7151 62.9723 38.3166 63.5524 38.1416C63.9457 38.025 64.5062 38.0444 64.929 38.1902C65.0765 38.2388 65.2044 38.2874 65.2142 38.2874C65.224 38.2874 65.2339 37.607 65.2339 36.7808V35.2742L64.9684 35.177C64.5259 35.0118 64.0834 34.9535 63.3656 34.9535C62.9133 34.9535 62.5593 34.9826 62.284 35.041L62.3135 35.0312ZM77.2498 39.5608C76.4828 39.726 75.8535 40.0953 75.4504 40.6299L75.2439 40.9021V39.7649H71.5467V49.7278H75.2439V47.016C75.2439 45.4511 75.2635 44.1875 75.293 44.0319C75.352 43.6723 75.5684 43.2349 75.7749 43.0891C76.3058 42.6906 77.1515 42.7781 77.5055 43.2835C77.7808 43.682 77.7808 43.6237 77.8005 46.8216L77.8201 49.7376H81.5075V46.4717C81.5075 43.0016 81.4878 42.6031 81.301 41.9519C81.1142 41.3201 80.8684 40.9021 80.416 40.455C79.9834 40.0273 79.6097 39.8038 79.0493 39.6482C78.6068 39.5219 77.7021 39.483 77.2695 39.5802L77.2498 39.5608ZM86.5715 39.5316C85.9717 39.6093 85.0867 39.9593 84.6147 40.2995C83.5429 41.0673 82.8055 42.2726 82.54 43.6723C82.4416 44.2263 82.4416 45.3441 82.54 45.8787C82.717 46.7827 83.0709 47.5894 83.5724 48.2407C84.2411 49.1155 85.1949 49.7084 86.2568 49.9222C86.837 50.0389 87.8006 50.0194 88.2923 49.8736C88.8528 49.7084 89.3247 49.446 89.7279 49.0766L90.0917 48.7364V49.7376H93.7398V39.7746H90.0917V40.8049L89.8557 40.5522C89.3739 40.0468 88.6954 39.7066 87.9186 39.5705C87.5548 39.5122 86.8862 39.4927 86.5617 39.5316H86.5715ZM100.888 39.5705C100.239 39.7066 99.4921 40.1537 99.1086 40.6591L98.9513 40.8632V39.7649H97.0928L95.2344 39.7843V44.7512L95.2147 49.7181H98.9513V46.8896C98.9513 43.8959 98.9513 43.8375 99.1676 43.4293C99.3642 43.0502 99.7477 42.8267 100.2 42.8267C100.593 42.8267 100.81 42.9044 101.056 43.1377C101.449 43.5265 101.439 43.3807 101.449 46.7535V49.7181H105.156L105.136 46.1023C105.117 42.5253 105.117 42.4767 105.018 42.0977C104.959 41.8838 104.812 41.5047 104.684 41.252C104.497 40.8729 104.399 40.7271 104.104 40.4453C103.72 40.0662 103.396 39.8523 102.973 39.7065C102.344 39.483 101.518 39.4247 100.879 39.5608L100.888 39.5705ZM110.623 39.5705C109.001 39.8232 107.673 40.6883 106.877 42.0005C106.641 42.399 106.454 42.8558 106.306 43.4099C106.188 43.857 106.179 43.9639 106.179 44.7318C106.179 45.6357 106.218 45.9371 106.434 46.5883C106.995 48.2893 108.391 49.4946 110.259 49.9028C110.564 49.9708 110.839 49.9903 111.518 49.9903C112.481 49.9903 112.855 49.9222 113.573 49.6404L113.937 49.4946V47.8227L113.956 46.1509L113.652 46.3259C113.209 46.5883 112.835 46.6855 112.275 46.7147C111.695 46.7438 111.38 46.6855 110.957 46.4717C110.574 46.2773 110.269 45.9662 110.072 45.558C109.935 45.2761 109.925 45.2178 109.925 44.7804C109.925 44.3916 109.945 44.2555 110.033 44.0514C110.338 43.3029 111.046 42.8558 112 42.8169C112.678 42.7878 112.953 42.8558 113.927 43.3321C113.947 43.3321 113.956 42.6031 113.956 41.6797V40.0176L113.661 39.9009C112.776 39.551 111.606 39.4247 110.623 39.5802V39.5705ZM119.02 39.5705C116.208 40.0565 114.36 42.4865 114.635 45.3441C114.733 46.355 114.999 47.1423 115.49 47.8713C116.189 48.9114 117.241 49.582 118.657 49.8931C119.266 50.0292 120.83 50.0097 121.489 49.8736C122.501 49.6501 123.406 49.1835 124.055 48.542C124.36 48.2407 124.851 47.5894 124.812 47.5506C124.802 47.5408 124.094 47.2687 123.239 46.9479L121.685 46.355L121.459 46.5883C121.174 46.8702 120.948 47.0063 120.594 47.0937C119.512 47.3756 118.421 46.8119 118.244 45.8787L118.204 45.6746H121.675L125.146 45.6552V44.8193C125.146 44.1972 125.117 43.8861 125.058 43.6043C124.812 42.4767 124.37 41.6214 123.642 40.9215C122.954 40.2509 122.177 39.8426 121.135 39.6094C120.672 39.5122 119.492 39.483 119.02 39.5705ZM66.3548 44.7512V49.7278H70.052V39.7649H66.3548V44.7415V44.7512ZM120.505 42.3504C120.761 42.4184 120.918 42.5059 121.154 42.7197C121.38 42.9239 121.508 43.1474 121.567 43.4196L121.607 43.6043H119.925C118.027 43.6043 118.175 43.6431 118.342 43.2155C118.617 42.4865 119.542 42.1171 120.505 42.3504ZM88.7249 42.8461C89.2264 42.9725 89.7771 43.4196 89.9934 43.8861C90.5145 44.9748 89.9934 46.2287 88.8528 46.6369C88.5086 46.7633 87.8695 46.773 87.5155 46.666C86.9058 46.4814 86.3748 45.9565 86.188 45.3636C86.1093 45.1109 86.0995 44.9651 86.1094 44.654C86.129 44.3041 86.1487 44.2166 86.2962 43.925C86.7387 43.0405 87.722 42.6128 88.7249 42.8655V42.8461Z" fill="white"/>
</g>
<defs>
<clipPath id="clip0_16149_73629">
<rect width="116" height="42" fill="white" transform="translate(16 8)"/>
</clipPath>
</defs>
</svg>
