<svg width="224" height="58" viewBox="0 0 224 58" fill="none" xmlns="http://www.w3.org/2000/svg">
<path d="M62.3913 26.5105L62.0814 28.1104H62.0273C61.6129 27.1807 60.4274 25.943 57.8978 25.943C53.7682 25.943 49.5864 29.1428 48.6585 34.1498C47.8334 38.537 50.0008 42.4089 54.8529 42.4089C56.66 42.4089 58.7266 41.6882 59.7571 40.1892H59.8112L59.5013 41.8413H64.0416L66.8811 26.4583H62.3913V26.5105ZM60.9463 34.1498C60.6364 35.6452 59.2436 38.1244 56.3519 38.1244C53.5646 38.1244 52.9971 35.647 53.2529 34.2507C53.5628 32.4958 55.1628 30.2761 57.7933 30.2761C60.3751 30.2761 61.2526 32.3409 60.9427 34.1498H60.9463ZM69.5152 26.5105H73.7997L73.4898 28.1104H73.5439C74.1114 27.3897 75.1438 25.943 77.8284 25.943L77.0032 30.5914C74.8357 30.6454 73.2196 31.0562 72.8736 33.4309L71.2737 41.899H66.5893L69.5152 26.5105ZM80.9237 20.4711H85.5722L83.4047 32.085H83.5074L88.8225 26.5105H94.242L87.1703 33.2724L91.2476 41.8936H86.0334L83.0389 34.4597H83.0029L81.6084 41.8936H77.014L80.9237 20.4711ZM101.643 25.943C96.9951 25.943 92.8151 29.9698 92.0403 34.2543C91.2151 38.7946 94.2601 42.4107 98.6995 42.4107C100.351 42.4031 101.965 41.9188 103.348 41.0161C104.793 40.1387 106.135 38.7964 107.222 37.0938H102.525C101.75 37.919 100.872 38.5388 99.4256 38.5388C97.6185 38.5388 96.3266 37.4541 96.3627 35.6488H107.894C108.049 35.2885 108.101 35.029 108.204 34.4597C109.081 29.7104 106.346 25.943 101.643 25.943ZM96.9951 32.5012C97.3554 31.5715 98.595 29.8707 101.022 29.8707C103.397 29.8707 104.016 31.5733 104.016 32.5012H96.9951ZM41.8481 41.8936H46.4424V20.4531H42.5183L34.3619 32.6327H34.3079V20.4531H30.3855L15.9844 41.8936H21.5589L29.663 29.714H29.7171V41.8936H33.6917L41.7454 29.714H41.8481V41.8936ZM119.899 26.5105H117.009L117.834 21.9702H113.807L113.497 23.725C113.137 25.7376 111.897 26.3556 110.193 26.5123H110.139L109.418 29.9716H111.688L109.468 41.8629H114.063L116.282 29.9716H119.225L119.899 26.5105Z" fill="white"/>
<path d="M191.129 36.0621C189.633 39.5718 186.019 42.4114 181.889 42.4114C177.241 42.4114 174.301 38.7466 175.178 34.1523C176.003 29.6119 180.187 25.9454 184.832 25.9454C188.909 25.9454 191.678 28.6805 191.75 32.4316H187.102C186.792 31.347 186.122 30.2642 184.16 30.2642C181.992 30.1615 180.185 31.9668 179.772 34.1379C179.358 36.3576 180.493 38.0602 182.715 38.0602C184.624 38.0602 185.778 36.9756 186.432 35.9954H191.129V36.0621ZM152.932 15L144.003 20.4718H146.533L138.428 32.6514H138.326V20.4718H134.349L126.242 32.6532H126.188V20.4736H121.539V41.9141H125.566L133.67 29.7345H133.724V41.9141H137.699L152.049 20.4736H154.32L152.932 15ZM161.707 41.8943H157.166L157.476 40.2421H157.422C156.337 41.7375 154.323 42.4618 152.518 42.4618C147.614 42.4618 145.498 38.5881 146.324 34.2027C147.253 29.1939 151.485 25.9959 155.563 25.9959C158.092 25.9959 159.28 27.2355 159.692 28.1634H159.746L160.056 26.5634H164.597L161.707 41.8943ZM153.963 38.1287C156.802 38.1287 158.247 35.6513 158.557 34.1541C158.867 32.2983 157.99 30.2804 155.408 30.2804C152.777 30.2804 151.174 32.5001 150.867 34.255C150.558 35.6999 151.177 38.1287 153.966 38.1287H153.963ZM176.106 26.5148H173.216L174.041 21.9745H170.014L169.704 23.7293C169.344 25.7418 168.104 26.3598 166.4 26.5166H166.346L165.676 29.9759H167.946L165.726 41.8672H170.321L172.54 29.9759H175.483L176.106 26.5148ZM195.464 20.4754H200.058L198.663 28.1147H198.717C199.698 26.6697 201.042 25.9472 203.054 25.9472C204.499 25.9472 206.153 26.5148 206.928 27.6499C207.908 29.1453 207.805 30.4894 207.288 33.2766L205.688 41.8456H201.094L202.643 33.4856C202.798 32.7649 203.211 30.2335 200.788 30.2335C198.206 30.2335 197.793 32.5577 197.638 33.3325L196.038 41.8492H191.498L195.464 20.4754Z" fill="white"/>
</svg>
