<svg width="220" height="58" viewBox="0 0 220 58" fill="none" xmlns="http://www.w3.org/2000/svg">
<g clip-path="url(#clip0_16149_73612)">
<path d="M43.6026 40.883H61.3639V36.2418H48.986V30.5476H59.2419V25.9064H48.986V20.6412H61.4424V16H43.6026V40.883ZM82.7402 31.6786L71.109 16H63.0928L65.6077 19.1591V40.961H70.9518V24.6193L82.976 40.883H88.1236V16H82.7402V31.6786ZM35.5079 28.0905C37.8655 27.6615 39.8303 25.4774 39.8303 22.3963C39.8303 19.0811 37.394 16 32.5607 16H17L19.4363 19.0811V40.922H33.1109C37.9441 40.922 40.459 37.9189 40.459 34.1747C40.3411 31.0936 38.2192 28.4415 35.5079 28.0905ZM24.7804 20.6802H31.4998C33.3074 20.6802 34.4469 21.7332 34.4469 23.2933C34.4469 24.8534 33.3074 25.9064 31.4998 25.9064H24.7804V20.6802ZM31.7356 36.2808H24.7804V30.5476H31.7356C33.7789 30.5476 34.9184 31.8346 34.9184 33.3947C34.9184 35.1888 33.7003 36.2418 31.7356 36.2808ZM166.635 31.6786H169.425V34.6037C167.971 35.7738 166.163 36.4368 164.277 36.4758C159.797 36.4758 156.654 33.0827 156.654 28.5195C156.654 23.9563 159.837 20.5632 164.277 20.5632C166.595 20.5632 168.757 21.7722 170.014 23.7223L174.258 21.3822C172.45 18.5351 169.267 16 164.238 16C157.125 16 151.231 20.8752 151.231 28.4415C151.231 36.0078 157.047 40.883 164.238 40.883C168.167 40.961 171.9 39.2839 174.494 36.3978V27.1934H163.02L166.635 31.6786ZM142.468 31.6786L130.798 16H122.821L125.297 19.1591V40.961H130.68V24.6193L142.704 40.883H147.812V16H142.468V31.6786ZM192.255 16H181.92L184.396 19.1591L183.964 20.3682L175.948 40.961H181.999L183.571 36.7488H194.377L195.949 40.961H202L192.255 16ZM184.946 32.0686L188.876 21.3432L192.805 32.0686H184.946ZM114.333 16H119.717V41H114.333V16ZM110.05 20.2902V16H91.1493V20.6412H103.016L91.1493 36.6318V40.883H110.247V36.2418H98.1045L110.05 20.2902Z" fill="white"/>
</g>
<defs>
<clipPath id="clip0_16149_73612">
<rect width="185" height="25" fill="white" transform="translate(17 16)"/>
</clipPath>
</defs>
</svg>
