<svg width="137" height="139" viewBox="0 0 137 139" fill="none" xmlns="http://www.w3.org/2000/svg">
<g clip-path="url(#clip0_6_140)">
<path fill-rule="evenodd" clip-rule="evenodd" d="M55.9646 33.6555C55.8434 33.5159 55.8583 33.3018 55.9979 33.1772L64.9052 25.2276C68.3957 22.1124 73.6825 22.4159 76.7135 25.9055L104.299 57.6636C107.36 61.1882 106.945 66.6057 103.377 69.7019L92.6875 78.9761C92.5462 79.0987 92.335 79.0836 92.2157 78.9422C92.0965 78.8009 92.1144 78.5869 92.2557 78.4643L102.945 69.19C106.228 66.3416 106.61 61.3575 103.793 58.1149L76.2079 26.3567C73.4194 23.1463 68.5555 22.8671 65.3443 25.7331L56.437 33.6826C56.2973 33.8073 56.0859 33.7951 55.9646 33.6555Z" fill="#676767"/>
<path fill-rule="evenodd" clip-rule="evenodd" d="M62.4697 35.3403C60.3532 32.9036 56.6355 32.7616 54.28 35.0276L19.5819 68.4079C17.612 70.303 17.4539 73.4145 19.224 75.4524L47.6922 108.227C49.4451 110.245 52.4722 110.498 54.5781 108.802L92.0516 78.6311C94.6182 76.5646 94.9792 72.7673 92.8428 70.3078L62.4697 35.3403ZM53.8221 34.5396C56.4547 32.007 60.6098 32.1657 62.9753 34.889L93.3484 69.8565C95.7361 72.6054 95.3327 76.8495 92.4641 79.1591L54.9906 109.33C52.6039 111.252 49.1732 110.965 47.1866 108.678L18.7184 75.9036C16.7123 73.594 16.8915 70.0677 19.124 67.9199L53.8221 34.5396Z" fill="#676767"/>
<path fill-rule="evenodd" clip-rule="evenodd" d="M36.3336 59.9541C36.4572 60.0916 36.4458 60.306 36.3083 60.4329L24.1611 71.6391C22.9375 72.7679 22.821 74.6686 23.8993 75.9101L41.5871 96.2734C42.6654 97.5149 44.5403 97.6384 45.7998 96.551L58.3044 85.7562C59.3074 84.8903 59.4257 83.3702 58.567 82.3816L57.2981 80.9207C57.1769 80.7812 57.1918 80.567 57.3314 80.4424C57.471 80.3178 57.6825 80.3299 57.8037 80.4695L59.0726 81.9304C60.1767 83.2015 60.0246 85.1558 58.7349 86.2692L46.2304 97.064C44.6909 98.393 42.3995 98.242 41.0815 96.7247L23.3937 76.3613C22.0758 74.844 22.2181 72.5209 23.7137 71.1412L35.8608 59.935C35.9984 59.8081 36.2101 59.8166 36.3336 59.9541Z" fill="#676767"/>
<path fill-rule="evenodd" clip-rule="evenodd" d="M50.7126 101.73C50.7205 101.639 50.7646 101.554 50.8349 101.495L61.7892 92.3295C61.9294 92.2122 62.1348 92.2273 62.2533 92.3638L64.8082 95.3052C64.8682 95.3743 64.8973 95.4656 64.8888 95.558C64.8802 95.6503 64.8346 95.7356 64.7627 95.7939L53.6683 104.798C53.5279 104.912 53.3254 104.896 53.2082 104.761L50.7934 101.98C50.7339 101.912 50.7048 101.822 50.7126 101.73ZM51.5257 101.79L53.5044 104.068L64.0724 95.4914L61.9602 93.0597L51.5257 101.79Z" fill="#676767"/>
<path fill-rule="evenodd" clip-rule="evenodd" d="M46.6153 57.1085C46.7885 59.386 47.8064 61.8587 49.6434 63.9734C51.4803 66.0882 53.7711 67.4248 55.9779 67.8874C58.1848 68.35 60.2839 67.9368 61.7909 66.5919C64.8067 63.9003 64.8979 58.8023 60.7667 54.0461C56.6354 49.29 51.635 48.7361 48.6191 51.4277C47.1121 52.7727 46.442 54.8309 46.6153 57.1085ZM45.9476 57.1697C45.7622 54.7334 46.4759 52.4432 48.1801 50.9222C51.5867 47.8819 57.0084 48.686 61.2723 53.5949C65.5362 58.5038 65.6366 64.057 62.2299 67.0973C60.5257 68.6183 58.1941 69.0458 55.8335 68.551C53.4728 68.0561 51.0594 66.6369 49.1377 64.4247C47.2161 62.2124 46.133 59.606 45.9476 57.1697Z" fill="#676767"/>
<path fill-rule="evenodd" clip-rule="evenodd" d="M50.8333 57.2596C51.0229 58.6314 51.7203 60.1646 52.8965 61.5187C54.0727 62.8729 55.4848 63.7682 56.8032 64.1326C58.1252 64.4979 59.3075 64.3216 60.1012 63.6133C60.8949 62.9049 61.2171 61.7385 61.027 60.3629C60.8374 58.9912 60.14 57.458 58.9638 56.1038C57.7875 54.7497 56.3755 53.8543 55.0571 53.49C53.735 53.1246 52.5528 53.3009 51.7591 54.0093C50.9654 54.7176 50.6431 55.884 50.8333 57.2596ZM50.1701 57.3625C49.9606 55.847 50.2987 54.4154 51.32 53.5038C52.3414 52.5923 53.7852 52.4336 55.2417 52.8361C56.7018 53.2397 58.2208 54.2151 59.4694 55.6526C60.718 57.0901 61.4802 58.7408 61.6902 60.2601C61.8997 61.7755 61.5616 63.2072 60.5402 64.1187C59.5189 65.0303 58.0751 65.1889 56.6186 64.7864C55.1584 64.3829 53.6395 63.4074 52.3909 61.97C51.1423 60.5325 50.3801 58.8817 50.1701 57.3625Z" fill="#676767"/>
<path fill-rule="evenodd" clip-rule="evenodd" d="M55.5425 41.9636C54.4401 40.6945 52.5121 40.598 51.2587 41.7493L37.9139 54.0068C36.9588 54.8841 36.8664 56.3652 37.7064 57.3322L54.7149 76.9135C55.5549 77.8806 57.016 77.9753 57.9954 77.126L71.6805 65.2601C72.9658 64.1457 73.1155 62.1949 72.0131 60.9257L55.5425 41.9636ZM50.8124 41.2504C52.3443 39.8433 54.7007 39.9612 56.0481 41.5124L72.5187 60.4745C73.8661 62.0256 73.6831 64.41 72.1121 65.7721L58.4271 77.638C57.1679 78.7298 55.2893 78.6082 54.2093 77.3648L37.2008 57.7835C36.1208 56.5401 36.2396 54.6358 37.4675 53.5079L50.8124 41.2504Z" fill="#676767"/>
<path fill-rule="evenodd" clip-rule="evenodd" d="M58.4342 38.5212C56.8436 36.69 54.0624 36.5486 52.2515 38.2071L36.8118 52.3465C34.7603 54.2253 34.5597 57.4031 36.3617 59.4776L52.9683 78.5963C54.7703 80.6709 57.9055 80.8716 60.0038 79.0467L75.7957 65.3127C77.6479 63.7019 77.8618 60.8875 76.2712 59.0563L58.4342 38.5212ZM51.8059 37.7075C53.8954 35.7939 57.1045 35.957 58.9398 38.07L76.7768 58.605C78.6121 60.718 78.3653 63.9653 76.2281 65.824L60.4362 79.558C58.0582 81.6262 54.505 81.3987 52.4627 79.0476L35.856 59.9288C33.8138 57.5777 34.0412 53.9762 36.3662 51.847L51.8059 37.7075Z" fill="#676767"/>
<path fill-rule="evenodd" clip-rule="evenodd" d="M78.5288 46.6611C78.1651 46.2424 78.2098 45.5999 78.6286 45.226L83.6417 40.752C84.0605 40.3782 84.6949 40.4146 85.0587 40.8334L93.0738 50.0609C93.4375 50.4797 93.3928 51.1222 92.974 51.496L87.961 55.97C87.5421 56.3438 86.9077 56.3074 86.544 55.8887L78.5288 46.6611ZM79.0677 45.7315C78.9281 45.8561 78.9132 46.0703 79.0344 46.2099L87.0496 55.4374C87.1708 55.577 87.3823 55.5891 87.5219 55.4645L92.5349 50.9905C92.6745 50.8659 92.6894 50.6518 92.5682 50.5122L84.5531 41.2846C84.4318 41.145 84.2203 41.1329 84.0807 41.2575L79.0677 45.7315Z" fill="#676767"/>
<path fill-rule="evenodd" clip-rule="evenodd" d="M87.9821 61.6119C87.6184 61.1931 87.6631 60.5506 88.082 60.1768L96.6772 52.5057C97.0961 52.1319 97.7305 52.1683 98.0942 52.5871L104.241 59.6637C104.605 60.0824 104.56 60.7249 104.141 61.0987L95.5459 68.7698C95.1271 69.1436 94.4927 69.1072 94.1289 68.6885L87.9821 61.6119ZM88.521 60.6823C88.3814 60.8069 88.3665 61.021 88.4877 61.1606L94.6345 68.2372C94.7558 68.3768 94.9673 68.389 95.1069 68.2643L103.702 60.5933C103.842 60.4687 103.857 60.2545 103.735 60.1149L97.5886 53.0383C97.4674 52.8987 97.2559 52.8866 97.1163 53.0112L88.521 60.6823Z" fill="#676767"/>
</g>
<defs>
<clipPath id="clip0_6_140">
<rect width="96.6207" height="101.82" fill="white" transform="translate(0 53.9259) rotate(-33.9258)"/>
</clipPath>
</defs>
</svg>
