<svg width="156" height="91" viewBox="0 0 156 91" fill="none" xmlns="http://www.w3.org/2000/svg">
<g clip-path="url(#clip0_6_447)">
<path fill-rule="evenodd" clip-rule="evenodd" d="M83.4644 24.7813C83.6812 24.6568 83.9466 24.7312 84.0572 24.9476L95.625 47.5712C96.5155 49.3127 95.8232 51.5369 94.0788 52.5392C92.3344 53.5415 90.1984 52.9422 89.308 51.2007L79.0099 31.0606C78.8993 30.8442 78.9853 30.5679 79.202 30.4433C79.4188 30.3188 79.6841 30.3933 79.7948 30.6096L90.0928 50.7498C90.762 52.0586 92.3672 52.5089 93.6782 51.7557C94.9891 51.0024 95.5094 49.3309 94.8402 48.0221L83.2723 25.3985C83.1617 25.1822 83.2477 24.9058 83.4644 24.7813Z" fill="#5A5A5A"/>
<path fill-rule="evenodd" clip-rule="evenodd" d="M63.2846 12.4785C63.272 12.7281 63.0649 12.9302 62.8218 12.9299L37.124 12.8938C35.6491 12.8918 34.3917 14.1184 34.3155 15.6335C34.2393 17.1487 35.3732 18.3786 36.8481 18.3807L59.8035 18.4129C60.0465 18.4133 60.2333 18.6159 60.2207 18.8656C60.2082 19.1152 60.001 19.3173 59.758 19.317L36.8026 19.2847C34.8417 19.282 33.3342 17.6467 33.4355 15.6323C33.5368 13.6179 35.2086 11.9871 37.1695 11.9898L62.8673 12.0259C63.1103 12.0262 63.2971 12.2289 63.2846 12.4785Z" fill="#5A5A5A"/>
<path fill-rule="evenodd" clip-rule="evenodd" d="M120.34 2.58407C122.273 2.58678 123.759 4.19862 123.659 6.18421C123.559 8.1698 121.911 9.77724 119.978 9.77453L93.8936 9.73792C93.2636 9.73704 92.6799 9.56479 92.1834 9.26384C91.9787 9.13971 91.9192 8.8635 92.0507 8.64691C92.1821 8.43032 92.4547 8.35538 92.6595 8.47951C93.0303 8.70431 93.4662 8.83324 93.9391 8.8339L120.024 8.87051C121.471 8.87254 122.704 7.66929 122.779 6.18298C122.854 4.69666 121.741 3.49012 120.295 3.48809L96.8778 3.45523C96.6348 3.45489 96.448 3.25224 96.4606 3.00261C96.4731 2.75297 96.6803 2.55087 96.9233 2.55121L120.34 2.58407Z" fill="#5A5A5A"/>
<path fill-rule="evenodd" clip-rule="evenodd" d="M89.016 -21.7496C89.5874 -21.904 90.1838 -21.8219 90.6741 -21.5215L101.279 -15.0229C101.769 -14.7225 102.113 -14.2283 102.235 -13.6492L102.815 -10.893C103.203 -9.04891 102.9 -7.0879 101.966 -5.39176L94.6292 7.92038C94.3228 8.47634 93.8116 8.88858 93.2172 9.05894L89.7237 10.0604C89.3889 10.1564 89.0971 10.3806 88.9102 10.6855L83.9091 18.8469C83.7203 19.155 83.6536 19.5208 83.7234 19.8655L84.4431 23.4215C84.5593 23.996 84.4482 24.6058 84.1335 25.1192L81.0833 30.0968C80.7256 30.6806 80.1401 31.0828 79.4868 31.1935L75.2668 31.9086C74.7585 31.9947 74.2457 31.898 73.8165 31.6349L61.5702 24.1306C61.141 23.8675 60.8219 23.4546 60.6679 22.9626L59.3892 18.8779C59.1912 18.2456 59.2837 17.5413 59.6415 16.9575L62.6917 11.9799C63.0063 11.4665 63.4992 11.0906 64.0638 10.9333L67.5589 9.96016C67.8977 9.86582 68.1934 9.64028 68.3822 9.33222L73.3834 1.17087C73.5703 0.865908 73.6376 0.504162 73.5711 0.162272L72.8773 -3.40514C72.7593 -4.01202 72.8945 -4.65466 73.2507 -5.18008L81.781 -17.7607C82.8678 -19.3636 84.4776 -20.5237 86.297 -21.0152L89.016 -21.7496ZM90.1947 -20.7392C89.9005 -20.9195 89.5427 -20.9687 89.1999 -20.8761L86.4808 -20.1416C84.8755 -19.708 83.4551 -18.6844 82.4961 -17.27L73.9659 -4.68942C73.7521 -4.37417 73.671 -3.98859 73.7418 -3.62446L74.4356 -0.0570478C74.5464 0.512769 74.4342 1.11568 74.1228 1.62395L69.1216 9.7853C68.807 10.2987 68.3141 10.6746 67.7495 10.8319L64.2543 11.805C63.9155 11.8994 63.6198 12.1249 63.4311 12.433L60.3809 17.4106C60.1662 17.7608 60.1107 18.1834 60.2295 18.5628L61.5082 22.6475C61.6006 22.9427 61.792 23.1904 62.0496 23.3483L74.2958 30.8526C74.5534 31.0104 74.8611 31.0685 75.166 31.0168L79.386 30.3017C79.778 30.2353 80.1293 29.994 80.344 29.6437L83.3942 24.6661C83.5829 24.3581 83.6496 23.9922 83.5799 23.6475L82.8602 20.0915C82.7439 19.517 82.8551 18.9072 83.1697 18.3938L88.1709 10.2325C88.4823 9.72419 88.9686 9.35049 89.5266 9.19053L93.0202 8.18909C93.3767 8.08687 93.6835 7.83953 93.8673 7.50595L101.204 -5.80618C102.029 -7.30278 102.296 -9.03309 101.953 -10.6603L101.373 -13.4164C101.3 -13.7639 101.094 -14.0604 100.8 -14.2406L90.1947 -20.7392Z" fill="#5A5A5A"/>
<path fill-rule="evenodd" clip-rule="evenodd" d="M63.5658 20.5113C63.963 19.8632 64.7815 19.6421 65.394 20.0175L75.7452 26.3606C76.3577 26.7359 76.5323 27.5656 76.1352 28.2136L74.2177 31.3428C74.0853 31.5588 73.8125 31.6325 73.6083 31.5074C73.4042 31.3823 73.346 31.1057 73.4783 30.8897L75.3958 27.7606C75.5282 27.5445 75.47 27.268 75.2658 27.1429L64.9146 20.7998C64.7104 20.6747 64.4376 20.7483 64.3052 20.9644L62.3877 24.0935C62.2553 24.3095 61.9825 24.3832 61.7783 24.2581C61.5742 24.133 61.516 23.8565 61.6483 23.6404L63.5658 20.5113Z" fill="#5A5A5A"/>
<path fill-rule="evenodd" clip-rule="evenodd" d="M93.9817 47.2201C92.7567 46.4694 91.1197 46.9116 90.3255 48.2077C89.5312 49.5039 89.8804 51.1631 91.1055 51.9138C92.3305 52.6645 93.9675 52.2223 94.7617 50.9262C95.556 49.6301 95.2068 47.9708 93.9817 47.2201ZM89.5861 47.7546C90.6451 46.0265 92.8277 45.4369 94.4611 46.4378C96.0945 47.4387 96.5601 49.6511 95.5011 51.3793C94.4421 53.1075 92.2595 53.697 90.6261 52.6961C88.9927 51.6952 88.5271 49.4828 89.5861 47.7546Z" fill="#5A5A5A"/>
<path fill-rule="evenodd" clip-rule="evenodd" d="M38.5287 13.2391C37.3036 12.4884 35.6667 12.9306 34.8724 14.2268C34.0782 15.5229 34.4274 17.1822 35.6524 17.9329C36.8774 18.6835 38.5144 18.2414 39.3087 16.9452C40.1029 15.6491 39.7537 13.9898 38.5287 13.2391ZM34.133 13.7737C35.192 12.0455 37.3747 11.4559 39.008 12.4568C40.6414 13.4578 41.107 15.6701 40.048 17.3983C38.989 19.1265 36.8064 19.7161 35.173 18.7151C33.5396 17.7142 33.074 15.5019 34.133 13.7737Z" fill="#5A5A5A"/>
<path fill-rule="evenodd" clip-rule="evenodd" d="M121.566 3.86505C120.341 3.11437 118.704 3.55654 117.91 4.85267C117.116 6.14881 117.465 7.80809 118.69 8.55877C119.915 9.30946 121.552 8.86729 122.346 7.57115C123.14 6.27502 122.791 4.61574 121.566 3.86505ZM117.171 4.39959C118.23 2.67141 120.412 2.08185 122.046 3.08276C123.679 4.08368 124.145 6.29605 123.086 8.02423C122.027 9.75241 119.844 10.342 118.211 9.34106C116.577 8.34015 116.112 6.12778 117.171 4.39959Z" fill="#5A5A5A"/>
<path fill-rule="evenodd" clip-rule="evenodd" d="M116.71 -14.0228C116.584 -12.1629 116.721 -9.63019 117.028 -6.83521C117.334 -4.04023 117.747 -1.56128 118.268 0.172556C118.53 1.04357 118.809 1.69403 119.096 2.1011C119.391 2.51953 119.611 2.57483 119.751 2.54762C119.912 2.51627 120.152 2.34415 120.409 1.80796C120.657 1.29091 120.867 0.541769 121.015 -0.403248C121.311 -2.28677 121.347 -4.84252 121.043 -7.61702C120.738 -10.3915 120.155 -12.8266 119.467 -14.5186C119.121 -15.3675 118.759 -16.0053 118.411 -16.4061C118.049 -16.8217 117.782 -16.8952 117.621 -16.8639C117.481 -16.8367 117.282 -16.6996 117.089 -16.1863C116.902 -15.6869 116.774 -14.9571 116.71 -14.0228ZM116.274 -16.4572C116.506 -17.076 116.892 -17.6332 117.523 -17.7561C118.133 -17.875 118.664 -17.5234 119.083 -17.0417C119.515 -16.5452 119.918 -15.8135 120.28 -14.9237C121.006 -13.1383 121.605 -10.6192 121.915 -7.78694C122.226 -4.95472 122.194 -2.31279 121.882 -0.325219C121.726 0.665309 121.497 1.52007 121.19 2.16057C120.892 2.78194 120.459 3.32103 119.849 3.43986C119.217 3.56283 118.728 3.17606 118.373 2.6717C118.009 2.15599 117.698 1.40295 117.428 0.501256C116.883 -1.31031 116.463 -3.85354 116.155 -6.66528C115.846 -9.47703 115.702 -12.074 115.834 -14.0172C115.9 -14.9845 116.036 -15.8246 116.274 -16.4572Z" fill="#5A5A5A"/>
<path fill-rule="evenodd" clip-rule="evenodd" d="M122.324 26.7678C122.443 24.908 122.297 22.3766 121.979 19.5838C121.662 16.791 121.239 14.3145 120.711 12.5834C120.446 11.7137 120.164 11.0646 119.876 10.6589C119.579 10.2418 119.359 10.1874 119.219 10.2152C119.058 10.2473 118.819 10.4204 118.563 10.9574C118.317 11.4753 118.11 12.2251 117.965 13.1704C117.677 15.0546 117.651 17.6097 117.966 20.3821C118.281 23.1544 118.874 25.5863 119.569 27.2749C119.918 28.1221 120.282 28.7582 120.632 29.1575C120.996 29.5714 121.263 29.6438 121.424 29.6118C121.564 29.584 121.763 29.4462 121.953 28.9322C122.139 28.4322 122.264 27.7021 122.324 26.7678ZM122.77 29.1998C122.54 29.8194 122.157 30.3779 121.525 30.5035C120.916 30.6248 120.384 30.2756 119.962 29.7958C119.528 29.3012 119.122 28.5714 118.757 27.6834C118.024 25.9015 117.415 23.3856 117.094 20.5556C116.772 17.7255 116.794 15.0842 117.098 13.0959C117.25 12.1051 117.476 11.2496 117.781 10.608C118.077 9.98557 118.508 9.44489 119.117 9.32358C119.749 9.19804 120.24 9.58261 120.597 10.0854C120.963 10.5994 121.276 11.351 121.551 12.2513C122.102 14.06 122.532 16.6007 122.851 19.4103C123.171 22.2199 123.325 24.8155 123.2 26.7587C123.138 27.7259 123.005 28.5663 122.77 29.1998Z" fill="#5A5A5A"/>
<path fill-rule="evenodd" clip-rule="evenodd" d="M72.9629 55.7086C74.5627 54.7515 76.8814 53.7236 79.511 52.7279C82.1406 51.7322 84.5368 50.9747 86.3181 50.6516C87.213 50.4893 87.9194 50.443 88.4123 50.5137C88.919 50.5864 89.0683 50.7577 89.1075 50.8946C89.1527 51.0523 89.1082 51.3441 88.7473 51.8168C88.3993 52.2727 87.827 52.7996 87.0524 53.3609C85.5084 54.4795 83.2476 55.672 80.6373 56.6604C78.0271 57.6488 75.5924 58.2342 73.7725 58.3893C72.8594 58.4672 72.1268 58.4343 71.6113 58.3054C71.0767 58.1718 70.8901 57.9674 70.8449 57.8098C70.8057 57.6729 70.8373 57.4331 71.2073 57.0285C71.5672 56.6348 72.1593 56.1894 72.9629 55.7086ZM70.5955 56.4246C70.1496 56.9123 69.8283 57.5091 70.0055 58.1276C70.1767 58.7253 70.7307 59.0383 71.3502 59.1931C71.9888 59.3528 72.8238 59.3798 73.7808 59.2982C75.7013 59.1345 78.2176 58.524 80.8821 57.5151C83.5467 56.5061 85.8861 55.278 87.5153 54.0976C88.3273 53.5093 88.9849 52.9172 89.416 52.3525C89.8343 51.8047 90.1182 51.1745 89.947 50.5767C89.7698 49.9582 89.203 49.6977 88.5923 49.6101C87.9678 49.5205 87.1557 49.5854 86.2294 49.7534C84.3682 50.0911 81.9115 50.8715 79.2662 51.8731C76.6209 52.8748 74.2416 53.9256 72.5702 54.9255C71.7382 55.4233 71.0515 55.9259 70.5955 56.4246Z" fill="#5A5A5A"/>
<path fill-rule="evenodd" clip-rule="evenodd" d="M112.116 43.4261C110.513 44.3768 108.191 45.3954 105.559 46.3804C102.926 47.3655 100.528 48.1132 98.7456 48.429C97.8504 48.5877 97.144 48.631 96.6515 48.5583C96.1453 48.4834 95.9966 48.3115 95.9579 48.1743C95.9134 48.0164 95.959 47.7246 96.3216 47.2533C96.6713 46.7987 97.2454 46.274 98.0219 45.7158C99.5697 44.6033 101.834 43.4199 104.448 42.442C107.061 41.4642 109.497 40.8887 111.317 40.7411C112.23 40.667 112.962 40.7029 113.477 40.834C114.011 40.9699 114.197 41.1751 114.241 41.333C114.28 41.4702 114.248 41.71 113.876 42.1131C113.515 42.5054 112.921 42.9485 112.116 43.4261ZM114.486 42.7195C114.933 42.2335 115.257 41.6379 115.082 41.0185C114.913 40.42 114.361 40.1047 113.742 39.9472C113.104 39.7848 112.269 39.7544 111.312 39.832C109.392 39.9878 106.874 40.5879 104.206 41.5861C101.539 42.5843 99.1952 43.8031 97.5619 44.9771C96.7479 45.5622 96.0882 46.1517 95.6551 46.7148C95.2348 47.2611 94.9486 47.8903 95.1175 48.4888C95.2922 49.1082 95.8577 49.3711 96.468 49.4613C97.0919 49.5535 97.904 49.492 98.8308 49.3277C100.693 48.9977 103.152 48.2273 105.8 47.2363C108.448 46.2454 110.831 45.2042 112.506 44.2109C113.339 43.7164 114.028 43.2165 114.486 42.7195Z" fill="#5A5A5A"/>
<path fill-rule="evenodd" clip-rule="evenodd" d="M40.5081 35.8207C40.6346 33.9608 40.4977 31.4281 40.191 28.6331C39.8844 25.8381 39.4713 23.3592 38.9505 21.6254C38.6889 20.7543 38.4094 20.1039 38.1226 19.6968C37.8278 19.2784 37.6073 19.2231 37.4676 19.2503C37.3066 19.2816 37.0668 19.4538 36.8094 19.99C36.5613 20.507 36.3516 21.2561 36.2032 22.2012C35.9075 24.0847 35.8714 26.6404 36.1758 29.4149C36.4803 32.1894 37.064 34.6245 37.752 36.3165C38.0972 37.1654 38.4591 37.8032 38.808 38.204C39.1698 38.6197 39.4366 38.6931 39.5975 38.6618C39.7373 38.6346 39.9366 38.4976 40.1292 37.9842C40.3165 37.4848 40.4446 36.755 40.5081 35.8207ZM40.9449 38.2551C40.7128 38.8739 40.327 39.4311 39.6955 39.554C39.0851 39.6729 38.5548 39.3213 38.1355 38.8396C37.7034 38.3431 37.3003 37.6114 36.9384 36.7217C36.2124 34.9362 35.6139 32.4171 35.3031 29.5849C34.9924 26.7526 35.0246 24.1107 35.3366 22.1231C35.4921 21.1326 35.7211 20.2778 36.0285 19.6373C36.3268 19.016 36.7594 18.4769 37.3697 18.358C38.0012 18.2351 38.4907 18.6219 38.846 19.1262C39.2093 19.6419 39.5202 20.395 39.7911 21.2967C40.3352 23.1082 40.7552 25.6514 41.0637 28.4632C41.3723 31.2749 41.5163 33.8719 41.3841 35.8152C41.3183 36.7824 41.1823 37.6225 40.9449 38.2551Z" fill="#5A5A5A"/>
<path fill-rule="evenodd" clip-rule="evenodd" d="M33.676 -4.64105C33.5566 -2.78124 33.7033 -0.249875 34.0208 2.54297C34.3383 5.33581 34.761 7.81226 35.2886 9.54339C35.5537 10.413 35.8358 11.0621 36.1242 11.4679C36.4207 11.8849 36.6414 11.9393 36.7812 11.9115C36.9422 11.8795 37.1814 11.7064 37.4368 11.1693C37.683 10.6514 37.8899 9.90166 38.0346 8.95632C38.3232 7.07217 38.3495 4.51707 38.0343 1.7447C37.7191 -1.02767 37.1258 -3.45955 36.4311 -5.14813C36.0825 -5.99534 35.7181 -6.63148 35.3675 -7.0307C35.0041 -7.44467 34.7369 -7.51707 34.5759 -7.48505C34.4362 -7.45725 34.2373 -7.31938 34.0467 -6.80546C33.8612 -6.30545 33.7359 -5.57534 33.676 -4.64105ZM33.2298 -7.07304C33.4596 -7.6926 33.8434 -8.25117 34.4745 -8.37671C35.0845 -8.49803 35.6163 -8.14879 36.0376 -7.66899C36.4718 -7.17444 36.8779 -6.44465 37.2432 -5.55662C37.9763 -3.77473 38.5847 -1.25885 38.9065 1.57122C39.2282 4.40129 39.2062 7.04255 38.9017 9.03083C38.75 10.0217 38.5242 10.8772 38.2191 11.5188C37.9232 12.1412 37.4925 12.6819 36.8826 12.8032C36.2514 12.9287 35.7603 12.5442 35.4029 12.0414C35.0375 11.5273 34.7236 10.7758 34.4492 9.87552C33.898 8.06676 33.468 5.52605 33.1486 2.71645C32.8292 -0.0931543 32.6751 -2.68874 32.7998 -4.63195C32.8619 -5.59916 32.9948 -6.43957 33.2298 -7.07304Z" fill="#5A5A5A"/>
<path fill-rule="evenodd" clip-rule="evenodd" d="M88.404 -17.5323C88.6082 -17.4072 88.6664 -17.1306 88.534 -16.9146L68.8796 15.1591C68.7472 15.3752 68.8054 15.6517 69.0096 15.7768L77.8821 21.2138C78.0863 21.3389 78.3591 21.2652 78.4915 21.0492L98.1459 -11.0246C98.2783 -11.2406 98.5511 -11.3143 98.7553 -11.1892C98.9594 -11.0641 99.0176 -10.7875 98.8853 -10.5715L79.2308 21.5023C78.8337 22.1503 78.0152 22.3714 77.4027 21.9961L68.5302 16.5591C67.9177 16.1838 67.7431 15.3541 68.1402 14.7061L87.7946 -17.3677C87.927 -17.5837 88.1998 -17.6574 88.404 -17.5323Z" fill="#5A5A5A"/>
<path fill-rule="evenodd" clip-rule="evenodd" d="M42.1352 14.1002C42.1497 13.8506 42.3584 13.6501 42.6013 13.6525L57.7666 13.7993C57.8968 13.8005 58.0169 13.861 58.0945 13.9645L60.333 16.9503C60.4776 17.1433 60.4363 17.4281 60.2407 17.5864C60.0451 17.7448 59.7692 17.7167 59.6245 17.5237L57.5085 14.7012L42.5487 14.5565C42.3058 14.5541 42.1207 14.3499 42.1352 14.1002Z" fill="#5A5A5A"/>
<path fill-rule="evenodd" clip-rule="evenodd" d="M91.5771 44.3976C91.793 44.2714 91.8768 43.9944 91.7645 43.7791L84.7485 30.3335C84.6883 30.218 84.5798 30.1384 84.4524 30.1163L80.7758 29.4774C80.5382 29.4361 80.3031 29.6022 80.2509 29.8484C80.1986 30.0946 80.3489 30.3277 80.5866 30.369L84.062 30.9729L90.9829 44.2363C91.0952 44.4517 91.3613 44.5239 91.5771 44.3976Z" fill="#5A5A5A"/>
<path fill-rule="evenodd" clip-rule="evenodd" d="M114.104 7.63564C114.09 7.88527 113.881 8.08572 113.638 8.08337L98.4731 7.93662C98.3428 7.93536 98.2227 7.87482 98.1451 7.77133L95.9067 4.78558C95.762 4.59258 95.8033 4.30776 95.9989 4.14943C96.1946 3.99109 96.4704 4.01919 96.6151 4.21219L98.7311 7.03463L113.691 7.17939C113.934 7.18174 114.119 7.38601 114.104 7.63564Z" fill="#5A5A5A"/>
</g>
<defs>
<clipPath id="clip0_6_447">
<rect width="110.996" height="117.438" fill="white" transform="translate(61.3601 -68) rotate(31.4995)"/>
</clipPath>
</defs>
</svg>
