<svg width="436" height="388" viewBox="0 0 436 388" fill="none" xmlns="http://www.w3.org/2000/svg">
<g clip-path="url(#clip0_6_152)">
<path fill-rule="evenodd" clip-rule="evenodd" d="M133.865 107.15C138.681 94.2156 155.327 88.4743 171.045 94.3261L260.923 127.786C279.951 134.87 290.651 153.305 284.822 168.962L279.831 182.366C279.578 183.047 278.702 183.349 277.875 183.041C277.047 182.733 276.582 181.932 276.836 181.251L281.826 167.847C287.148 153.551 277.378 136.719 260.005 130.251L170.127 96.7913C156.063 91.5554 141.17 96.6924 136.861 108.265L85.4674 246.315C81.1591 257.888 89.0678 271.514 103.132 276.75L193.009 310.21C210.383 316.678 228.781 310.332 234.103 296.036L264.761 213.684C265.015 213.003 265.891 212.701 266.718 213.009C267.546 213.317 268.011 214.118 267.757 214.799L237.099 297.152C231.27 312.809 211.12 319.759 192.092 312.675L102.214 279.215C86.4954 273.363 77.6563 258.134 82.4715 245.2L133.865 107.15Z" fill="#666666"/>
<path fill-rule="evenodd" clip-rule="evenodd" d="M392.943 156.652C383.707 138.504 369.159 124.508 347.57 118.074C327.093 111.972 311.332 113.765 299.77 118.824C288.167 123.901 280.708 132.31 277.012 139.524C276.68 140.172 275.763 140.396 274.964 140.024C274.165 139.652 273.786 138.825 274.118 138.177C278.017 130.566 285.853 121.728 298.083 116.377C310.355 111.007 326.967 109.187 348.242 115.527C371.019 122.314 386.251 137.1 395.788 155.84C405.305 174.539 409.202 197.251 409.373 220.173C409.768 273.275 382.198 329.211 345.921 358.283C303.094 392.602 268.257 387.343 254.843 382.349C248.319 379.92 235.393 374.035 224.839 363.113C214.23 352.135 206.132 336.181 209.165 313.848C209.264 313.123 210.041 312.68 210.9 312.859C211.76 313.038 212.377 313.771 212.278 314.496C209.347 336.07 217.156 351.213 227.138 361.542C237.173 371.927 249.52 377.56 255.76 379.884C267.876 384.394 301.51 389.953 343.638 356.194C379.336 327.586 406.63 272.294 406.239 219.846C406.07 197.123 402.2 174.841 392.943 156.652Z" fill="#666666"/>
<path fill-rule="evenodd" clip-rule="evenodd" d="M209.454 369.44C179.977 356.934 153.593 339.242 142.224 326.06C129.422 311.218 120.304 292.373 118.29 283.312C118.125 282.566 117.302 282.001 116.453 282.05C115.603 282.098 115.049 282.742 115.215 283.488C117.34 293.051 126.712 312.321 139.796 327.491C151.655 341.239 178.614 359.214 208.375 371.841C238.1 384.453 271.206 391.977 295.213 384.179C295.984 383.929 296.292 383.155 295.901 382.451C295.509 381.747 294.566 381.38 293.795 381.63C270.994 389.036 238.967 381.961 209.454 369.44Z" fill="#666666"/>
<path fill-rule="evenodd" clip-rule="evenodd" d="M298.723 116.615C299.34 116.163 300.332 116.279 300.938 116.874C313.512 129.205 329.659 158.985 323.092 204.696C316.99 247.171 302.081 283.964 278.985 311.915C255.838 339.926 231.806 346.771 215.15 347.116C214.295 347.134 213.496 346.542 213.365 345.795C213.235 345.048 213.823 344.429 214.678 344.411C230.324 344.087 253.623 337.676 276.357 310.165C299.14 282.593 313.924 246.197 319.982 204.032C326.461 158.929 310.465 130.045 298.704 118.51C298.098 117.915 298.106 117.067 298.723 116.615Z" fill="#666666"/>
<path fill-rule="evenodd" clip-rule="evenodd" d="M355.898 125.899C340.63 116.659 323.12 115.058 308.481 115.856C307.631 115.903 306.81 115.336 306.647 114.59C306.484 113.844 307.041 113.202 307.891 113.156C322.847 112.341 341.252 113.935 357.467 123.748C373.74 133.597 387.445 151.498 393.427 182.664C401.117 222.725 392.262 261.232 377.104 292.886C361.951 324.528 340.441 349.441 322.642 362.303C312.74 369.459 297.901 378.502 280.123 380.63C262.184 382.777 241.471 377.857 220.138 357.494C219.522 356.906 219.515 356.056 220.123 355.595C220.73 355.134 221.722 355.237 222.338 355.825C242.923 375.474 262.504 379.961 279.311 377.949C296.279 375.918 310.637 367.236 320.458 360.139C337.874 347.553 359.16 322.963 374.184 291.591C389.203 260.229 397.907 222.207 390.337 182.769C384.454 152.115 371.108 135.104 355.898 125.899Z" fill="#666666"/>
<path fill-rule="evenodd" clip-rule="evenodd" d="M306.063 95.589C274.35 85.6423 242.637 82.3293 225.013 84.7186C209.85 86.7742 200.734 89.9381 194.84 93.0083C190.331 95.3577 187.715 97.6317 185.597 99.4734C184.932 100.052 184.315 100.588 183.705 101.07C183.108 101.541 182.116 101.453 181.49 100.873C180.863 100.293 180.839 99.4411 181.435 98.97C181.949 98.5646 182.501 98.0834 183.121 97.544C185.249 95.6916 188.164 93.1534 192.982 90.6433C199.236 87.3851 208.709 84.1371 224.15 82.0439C242.45 79.5629 274.739 83.0056 306.788 93.0577C338.836 103.11 371.047 119.897 388.848 144.386C389.333 145.053 389.145 145.866 388.428 146.203C387.712 146.539 386.738 146.271 386.253 145.604C369.089 121.991 337.777 105.536 306.063 95.589Z" fill="#666666"/>
<path fill-rule="evenodd" clip-rule="evenodd" d="M167.779 104.121C153.715 98.8852 138.821 104.022 134.513 115.595L88.6252 238.854C84.3169 250.427 92.2256 264.053 106.29 269.288L184.184 298.287C196.593 302.907 209.735 298.374 213.536 288.163L261.259 159.974C265.06 149.762 258.082 137.739 245.673 133.12L167.779 104.121ZM131.517 114.479C136.332 101.545 152.978 95.804 168.697 101.656L246.59 130.654C260.654 135.89 268.563 149.516 264.255 161.089L216.532 289.279C212.224 300.851 197.33 305.988 183.266 300.752L105.372 271.754C89.6532 265.902 80.8141 250.673 85.6293 237.739L131.517 114.479Z" fill="#666666"/>
<path fill-rule="evenodd" clip-rule="evenodd" d="M268.944 186.213C266.454 187.494 264.299 189.806 263.154 192.88C262.01 195.954 262.129 199.112 263.175 201.71C264.22 204.306 266.143 206.257 268.587 207.166C271.032 208.076 273.762 207.859 276.251 206.578C278.74 205.297 280.896 202.985 282.04 199.911C283.185 196.837 283.066 193.678 282.02 191.081C280.975 188.484 279.051 186.534 276.607 185.624C274.163 184.714 271.433 184.932 268.944 186.213ZM267.098 183.841C270.186 182.252 273.927 181.819 277.525 183.159C281.124 184.499 283.67 187.272 284.967 190.494C286.264 193.716 286.36 197.47 285.036 201.026C283.713 204.582 281.185 207.36 278.097 208.949C275.009 210.538 271.268 210.971 267.67 209.632C264.071 208.292 261.524 205.519 260.227 202.296C258.93 199.075 258.835 195.32 260.158 191.764C261.482 188.209 264.01 185.431 267.098 183.841Z" fill="#666666"/>
<path fill-rule="evenodd" clip-rule="evenodd" d="M263.363 182.203C259.903 184.051 256.912 187.339 255.302 191.665C253.692 195.991 253.804 200.434 255.213 204.095C256.623 207.757 259.275 210.533 262.706 211.811C266.137 213.088 269.96 212.722 273.421 210.873C276.881 209.025 279.872 205.737 281.482 201.411C283.093 197.086 282.98 192.642 281.571 188.981C280.161 185.319 277.509 182.543 274.078 181.266C270.647 179.988 266.825 180.354 263.363 182.203ZM261.48 179.851C265.523 177.692 270.37 177.078 274.996 178.8C279.621 180.523 282.887 184.157 284.534 188.434C286.181 192.712 286.261 197.737 284.478 202.527C282.695 207.317 279.348 211.065 275.304 213.225C271.262 215.384 266.414 215.998 261.789 214.276C257.163 212.554 253.897 208.92 252.251 204.643C250.604 200.364 250.523 195.34 252.306 190.55C254.089 185.76 257.436 182.011 261.48 179.851Z" fill="#666666"/>
<path fill-rule="evenodd" clip-rule="evenodd" d="M152.323 145.104C139.322 152.368 128.19 165.019 122.102 181.371C116.015 197.722 116.164 214.573 121.25 228.57C126.337 242.572 136.301 253.59 149.778 258.607C163.254 263.624 177.997 261.804 191.003 254.538C204.003 247.274 215.135 234.623 221.223 218.272C227.31 201.92 227.161 185.069 222.075 171.072C216.988 157.07 207.024 146.052 193.548 141.035C180.071 136.018 165.328 137.838 152.323 145.104ZM150.395 142.777C163.956 135.2 179.743 133.089 194.465 138.57C209.188 144.051 219.751 155.972 225.056 170.572C230.363 185.178 230.471 202.591 224.219 219.387C217.966 236.182 206.497 249.286 192.931 256.865C179.369 264.442 163.582 266.553 148.86 261.072C134.137 255.592 123.574 243.67 118.269 229.07C112.962 214.465 112.854 197.051 119.107 180.255C125.359 163.46 136.829 150.356 150.395 142.777Z" fill="#666666"/>
<path fill-rule="evenodd" clip-rule="evenodd" d="M214.678 182.408C215.064 183.114 214.749 183.885 213.975 184.131L166.891 199.062C166.131 199.303 165.207 198.948 164.809 198.262L149.63 172.11C149.224 171.411 149.515 170.63 150.279 170.367C151.043 170.103 151.991 170.456 152.397 171.155L166.86 196.073L212.577 181.575C213.351 181.33 214.292 181.703 214.678 182.408Z" fill="#666666"/>
</g>
<defs>
<clipPath id="clip0_6_152">
<rect x="117.472" width="409.19" height="336.701" transform="rotate(20.4195 117.472 0)" fill="white"/>
</clipPath>
</defs>
</svg>
